<svg xmlns="http://www.w3.org/2000/svg" id="canvas" width="1200" height="800"><circle cx="220.04368058475657" cy="120.87460369897771" r="46.81905914441549" fill="#4CAF50" opacity="0.597599514091915"/><circle cx="957.7863457849475" cy="234.82690233448037" r="52.017717334809674" fill="#4CAF50" opacity="0.7126323353541375"/><rect x="-47.25680140089133" y="-47.25680140089133" width="94.51360280178265" height="94.51360280178265" fill="#2196F3" opacity="0.806287053591904" transform="translate(354.4736581436538,353.92795383750143) rotate(14.568447918703683)"/><circle cx="289.7674172449078" cy="388.3986927408268" r="49.025867328195744" fill="#4CAF50" opacity="0.7266501545509034"/><polygon points="0,-59.17881492168471 -51.25035708803657,29.589407460842356 51.25035708803657,29.589407460842356" fill="#f44336" opacity="0.3172955119363698" transform="translate(849.8639621341335,7.116126026621483) rotate(105.03914603474566)"/><rect x="-33.31025789476502" y="-33.31025789476502" width="66.62051578953005" height="66.62051578953005" fill="#2196F3" opacity="0.8023060402445585" transform="translate(1161.0590797251455,529.9966691312159) rotate(334.5580764166636)"/><polygon points="0,-41.67231929231726 -36.08928714176311,20.83615964615863 36.08928714176311,20.83615964615863" fill="#f44336" opacity="0.6675358045271708" transform="translate(721.7929025940612,239.13119201872303) rotate(281.44241085000596)"/><text x="905.8779668464359" y="49.27474875028839" font-size="65.42842742297582" font-family="Arial, sans-serif" font-weight="bold" fill="#666" opacity="0.5332232538183989" text-anchor="middle" dominant-baseline="middle" transform="rotate(227.8579805549838, 905.8779668464359, 49.27474875028839)">@</text><polygon points="0,-52.90262316282003 -45.815015585837216,26.451311581410014 45.815015585837216,26.451311581410014" fill="#f44336" opacity="0.3453354556792921" transform="translate(459.73756971742523,88.1577692775668) rotate(233.92785714778427)"/><rect x="-50.39100313753898" y="-50.39100313753898" width="100.78200627507796" height="100.78200627507796" fill="#2196F3" opacity="0.4519628443308095" transform="translate(364.86302523483175,29.63884107039423) rotate(341.1228902986225)"/><polygon points="0,-48.971095340016454 -42.410212615603996,24.485547670008227 42.410212615603996,24.485547670008227" fill="#f44336" opacity="0.808551327701347" transform="translate(246.11443031202697,260.5023566918795) rotate(75.18585962701523)"/><text x="945.0061884542981" y="398.84941789571036" font-size="95.40985528539535" font-family="Arial, sans-serif" font-weight="bold" fill="#666" opacity="0.40374977263965434" text-anchor="middle" dominant-baseline="middle" transform="rotate(87.83915704872003, 945.0061884542981, 398.84941789571036)">@</text><polygon points="0,-59.122758022315644 -51.20181038912556,29.561379011157822 51.20181038912556,29.561379011157822" fill="#f44336" opacity="0.6092952479548763" transform="translate(389.0261770828052,560.6578441396106) rotate(187.43361528842217)"/><polygon points="0,-59.90404455397985 -51.87842437318141,29.952022276989926 51.87842437318141,29.952022276989926" fill="#f44336" opacity="0.6257038651873734" transform="translate(570.5925037786873,231.36048200142608) rotate(161.40174176530988)"/><rect x="-42.18890605315086" y="-42.18890605315086" width="84.37781210630172" height="84.37781210630172" fill="#2196F3" opacity="0.6261921191355286" transform="translate(140.9291006333571,582.5274563993211) rotate(188.81375521376307)"/><circle cx="385.3886284154487" cy="195.24521773370864" r="35.93324357708237" fill="#4CAF50" opacity="0.8072931155562066"/><text x="1070.803243087056" y="482.87559794754816" font-size="91.74353366363641" font-family="Arial, sans-serif" font-weight="bold" fill="#666" opacity="0.7462795053910016" text-anchor="middle" dominant-baseline="middle" transform="rotate(17.322741454127225, 1070.803243087056, 482.87559794754816)">@</text><circle cx="1084.8001731017237" cy="1.2314607256882049" r="52.72867267661918" fill="#4CAF50" opacity="0.7038372832900031"/><rect x="-34.378975365383376" y="-34.378975365383376" width="68.75795073076675" height="68.75795073076675" fill="#2196F3" opacity="0.7353856587647087" transform="translate(163.4347886522288,62.24829902610747) rotate(2.2957833312029496)"/><polygon points="0,-45.375564425557066 -39.296391503589874,22.687782212778533 39.296391503589874,22.687782212778533" fill="#f44336" opacity="0.4829131511950747" transform="translate(1005.4974546053759,173.3157747249348) rotate(169.4652048919852)"/><text x="1014.9968624757187" y="665.0535557907236" font-size="109.68815040474627" font-family="Arial, sans-serif" font-weight="bold" fill="#666" opacity="0.8529358720136575" text-anchor="middle" dominant-baseline="middle" transform="rotate(181.39932331991238, 1014.9968624757187, 665.0535557907236)">@</text><text x="599.2829178706529" y="94.99060104162575" font-size="107.09508810376575" font-family="Arial, sans-serif" font-weight="bold" fill="#666" opacity="0.5646077545353906" text-anchor="middle" dominant-baseline="middle" transform="rotate(79.24767540374027, 599.2829178706529, 94.99060104162575)">@</text><text x="697.3424797760234" y="662.8081011490218" font-size="69.8986360950548" font-family="Arial, sans-serif" font-weight="bold" fill="#666" opacity="0.49831914602127403" text-anchor="middle" dominant-baseline="middle" transform="rotate(248.16278383294565, 697.3424797760234, 662.8081011490218)">@</text><polygon points="0,-60.332688246266365 -52.24964069987348,30.166344123133182 52.24964069987348,30.166344123133182" fill="#f44336" opacity="0.39806351682946717" transform="translate(101.09450020609789,525.5883095270436) rotate(348.85428533072076)"/><circle cx="1152.9916845750065" cy="306.8433362574511" r="47.76516413553339" fill="#4CAF50" opacity="0.7971794212857317"/><rect x="-32.05796856240132" y="-32.05796856240132" width="64.11593712480264" height="64.11593712480264" fill="#2196F3" opacity="0.4588510452703273" transform="translate(806.660039431306,673.8409850030215) rotate(200.46121233086288)"/><text x="635.3157317146286" y="189.5483410191555" font-size="86.91652920303096" font-family="Arial, sans-serif" font-weight="bold" fill="#666" opacity="0.42413853027142445" text-anchor="middle" dominant-baseline="middle" transform="rotate(283.08461076732186, 635.3157317146286, 189.5483410191555)">@</text><rect x="-33.92857340622929" y="-33.92857340622929" width="67.85714681245858" height="67.85714681245858" fill="#2196F3" opacity="0.7971411399202009" transform="translate(328.12516592944166,55.22746446184659) rotate(94.01287640586486)"/><rect x="-41.76571297987745" y="-41.76571297987745" width="83.5314259597549" height="83.5314259597549" fill="#2196F3" opacity="0.4230525261687268" transform="translate(166.13328811459556,296.78304476986347) rotate(161.96170173072102)"/><polygon points="0,-51.525512824444235 -44.62240304898959,25.762756412222117 44.62240304898959,25.762756412222117" fill="#f44336" opacity="0.511821431886192" transform="translate(876.6437146560645,499.0330069636893) rotate(317.24774435484966)"/><circle cx="277.0548681183188" cy="564.05722609399" r="47.52176809639571" fill="#4CAF50" opacity="0.6657090106700151"/><circle cx="280.4976120766603" cy="356.33958133918713" r="49.97922600160554" fill="#4CAF50" opacity="0.8488235346736919"/><rect x="-49.420830657529706" y="-49.420830657529706" width="98.84166131505941" height="98.84166131505941" fill="#2196F3" opacity="0.3762900841610087" transform="translate(205.78155245739023,169.72537546485844) rotate(6.754644106792904)"/><polygon points="0,-45.45348494922774 -39.363872656564865,22.72674247461387 39.363872656564865,22.72674247461387" fill="#f44336" opacity="0.6715891189170979" transform="translate(1166.6186623579079,590.8659162889718) rotate(297.18017633872256)"/><polygon points="0,-44.0851649831105 -38.178872805401866,22.04258249155525 38.178872805401866,22.04258249155525" fill="#f44336" opacity="0.7837122979277229" transform="translate(355.8424333166536,480.27893822681324) rotate(247.2663742926115)"/><polygon points="0,-45.702873953049185 -39.57984986929873,22.851436976524592 39.57984986929873,22.851436976524592" fill="#f44336" opacity="0.744695472607211" transform="translate(469.1730911080515,579.9636398503264) rotate(310.3480708708132)"/><text x="943.4674971842473" y="189.0558439799576" font-size="69.56826539038246" font-family="Arial, sans-serif" font-weight="bold" fill="#666" opacity="0.31581174045312427" text-anchor="middle" dominant-baseline="middle" transform="rotate(285.5576196507557, 943.4674971842473, 189.0558439799576)">@</text><rect x="-52.4543053324866" y="-52.4543053324866" width="104.9086106649732" height="104.9086106649732" fill="#2196F3" opacity="0.4829344301728213" transform="translate(115.59768356924297,103.79157459244048) rotate(147.37828680041503)"/><circle cx="125.45763510729198" cy="222.99294211047345" r="50.964213488187795" fill="#4CAF50" opacity="0.3420196733421593"/><polygon points="0,-46.93611492088891 -40.64786787643564,23.468057460444456 40.64786787643564,23.468057460444456" fill="#f44336" opacity="0.4372864501536956" transform="translate(509.91358506394636,668.7991021674608) rotate(254.9657604647242)"/><circle cx="1084.8968044317958" cy="355.1396001016319" r="40.38547747931751" fill="#4CAF50" opacity="0.7232978303853338"/><polygon points="0,-37.38815726040744 -32.379093988200445,18.69407863020372 32.379093988200445,18.69407863020372" fill="#f44336" opacity="0.5105928917754958" transform="translate(811.4115746042415,283.76795621334014) rotate(248.43104528679567)"/><circle cx="820.9074759022379" cy="657.6601311610284" r="39.606962700948316" fill="#4CAF50" opacity="0.6827657550659775"/><polygon points="0,-51.74790518829874 -44.815000485695265,25.87395259414937 44.815000485695265,25.87395259414937" fill="#f44336" opacity="0.813257699117454" transform="translate(262.04442754502304,744.8185623494707) rotate(188.90874603599923)"/><polygon points="0,-64.42655597698 -55.79503415440484,32.21327798849 55.79503415440484,32.21327798849" fill="#f44336" opacity="0.7691550607177982" transform="translate(1042.9111286828218,91.353098228348) rotate(132.1909513303478)"/><circle cx="145.7274083946453" cy="170.69444800976646" r="47.242275839048446" fill="#4CAF50" opacity="0.7268782234266131"/><polygon points="0,-37.40233121368599 -32.391368991811724,18.701165606842995 32.391368991811724,18.701165606842995" fill="#f44336" opacity="0.3285601841955223" transform="translate(282.72253062328525,277.86961768223904) rotate(8.77619028464618)"/><text x="431.90553865184637" y="156.0163243873422" font-size="73.47920058493544" font-family="Arial, sans-serif" font-weight="bold" fill="#666" opacity="0.6589859678267598" text-anchor="middle" dominant-baseline="middle" transform="rotate(221.99760873386612, 431.90553865184637, 156.0163243873422)">@</text><polygon points="0,-57.00884234355294 -49.371105709858846,28.50442117177647 49.371105709858846,28.50442117177647" fill="#f44336" opacity="0.5463016659261345" transform="translate(49.08482258103084,150.90021271141066) rotate(127.85354555487885)"/><polygon points="0,-59.39929790090099 -51.441300949139944,29.699648950450495 51.441300949139944,29.699648950450495" fill="#f44336" opacity="0.3467341068382573" transform="translate(45.062707017442705,772.1239583032965) rotate(137.4621279708697)"/><rect x="-49.26861697740475" y="-49.26861697740475" width="98.5372339548095" height="98.5372339548095" fill="#2196F3" opacity="0.705204536823318" transform="translate(891.3410274901215,90.29618212911802) rotate(117.63320213558704)"/><rect x="-53.48744646252891" y="-53.48744646252891" width="106.97489292505782" height="106.97489292505782" fill="#2196F3" opacity="0.5204340288623904" transform="translate(776.1709695999283,510.98219390035854) rotate(179.1351599852651)"/><polygon points="0,-48.36274412556407 -41.883365009465116,24.181372062782035 41.883365009465116,24.181372062782035" fill="#f44336" opacity="0.7917059504157546" transform="translate(975.7216697462953,632.0352924791079) rotate(183.99182345709693)"/><rect x="-35.189931743032325" y="-35.189931743032325" width="70.37986348606465" height="70.37986348606465" fill="#2196F3" opacity="0.8424109547103671" transform="translate(1021.754810727175,47.86752366457847) rotate(244.09889074018938)"/><rect x="-53.411721380039765" y="-53.411721380039765" width="106.82344276007953" height="106.82344276007953" fill="#2196F3" opacity="0.4132706958752692" transform="translate(182.09469521554968,649.36373683459) rotate(210.3334775324261)"/><rect x="-39.18667966922828" y="-39.18667966922828" width="78.37335933845657" height="78.37335933845657" fill="#2196F3" opacity="0.6340342708297861" transform="translate(664.5315894503818,281.40337989451467) rotate(128.09524720638137)"/><rect x="-42.35330554225601" y="-42.35330554225601" width="84.70661108451202" height="84.70661108451202" fill="#2196F3" opacity="0.7552642066412929" transform="translate(756.3646856916512,291.1351585913247) rotate(207.3775111202484)"/><circle cx="472.2434483499606" cy="362.7050512260807" r="40.11044866787649" fill="#4CAF50" opacity="0.34768911938904024"/><circle cx="206.9648353784254" cy="276.7137923841906" r="37.038682711323766" fill="#4CAF50" opacity="0.8042052788856966"/><text x="950.6104115386726" y="578.8825652299752" font-size="89.38648579844823" font-family="Arial, sans-serif" font-weight="bold" fill="#666" opacity="0.7818676432108698" text-anchor="middle" dominant-baseline="middle" transform="rotate(310.7146461676585, 950.6104115386726, 578.8825652299752)">@</text><circle cx="110.47250684948402" cy="717.1893070899839" r="38.057560055118095" fill="#4CAF50" opacity="0.5044468364165224"/><polygon points="0,-64.42350869683516 -55.79239513238697,32.21175434841758 55.79239513238697,32.21175434841758" fill="#f44336" opacity="0.4621836989251067" transform="translate(1081.9849069209977,643.727724267225) rotate(285.74664626401335)"/><rect x="-51.511130486565435" y="-51.511130486565435" width="103.02226097313087" height="103.02226097313087" fill="#2196F3" opacity="0.6101866318221005" transform="translate(638.6209376596405,185.04906746333097) rotate(347.3919713077823)"/><text x="180.41697249816448" y="457.8408632542071" font-size="81.5204233874749" font-family="Arial, sans-serif" font-weight="bold" fill="#666" opacity="0.7216088164793436" text-anchor="middle" dominant-baseline="middle" transform="rotate(155.20864261729392, 180.41697249816448, 457.8408632542071)">@</text><rect x="-45.49614056899738" y="-45.49614056899738" width="90.99228113799477" height="90.99228113799477" fill="#2196F3" opacity="0.7688984370444965" transform="translate(614.1679928514943,34.44033547458582) rotate(96.17024003929481)"/><text x="242.75973768063528" y="131.15062605586704" font-size="88.99927304869207" font-family="Arial, sans-serif" font-weight="bold" fill="#666" opacity="0.48269132710531204" text-anchor="middle" dominant-baseline="middle" transform="rotate(325.92840035443595, 242.75973768063528, 131.15062605586704)">@</text><rect x="-41.25509097441999" y="-41.25509097441999" width="82.51018194883999" height="82.51018194883999" fill="#2196F3" opacity="0.7681710913079327" transform="translate(303.93348716739354,701.336106217988) rotate(191.82249824649222)"/><polygon points="0,-53.59018730914362 -46.4104636032848,26.79509365457181 46.4104636032848,26.79509365457181" fill="#f44336" opacity="0.721248385441527" transform="translate(1053.3138124044413,303.6969971089249) rotate(245.8022054100134)"/><circle cx="1150.6059399252765" cy="43.7922353610551" r="41.714753950945195" fill="#4CAF50" opacity="0.5892936282639274"/><circle cx="1100.418600119046" cy="651.5190302120157" r="44.455551367986004" fill="#4CAF50" opacity="0.5857310183275659"/><circle cx="394.62683188923154" cy="131.99732813499477" r="48.797291958416594" fill="#4CAF50" opacity="0.7717533097704548"/><polygon points="0,-56.98125481707061 -49.347214211097565,28.490627408535303 49.347214211097565,28.490627408535303" fill="#f44336" opacity="0.6304311168792005" transform="translate(606.8701202119753,737.925171147764) rotate(24.920002345026198)"/><circle cx="66.25601359518672" cy="663.7794371697228" r="33.00933403400778" fill="#4CAF50" opacity="0.5435606520475669"/><circle cx="44.64861339839281" cy="792.5005898826372" r="51.43363637477877" fill="#4CAF50" opacity="0.30023490417537185"/><text x="358.8038366662838" y="108.98471736744177" font-size="104.36965593275829" font-family="Arial, sans-serif" font-weight="bold" fill="#666" opacity="0.5617220593675861" text-anchor="middle" dominant-baseline="middle" transform="rotate(299.65233261799784, 358.8038366662838, 108.98471736744177)">@</text></svg>